<svg width="526" height="125" viewBox="0 0 526 125" fill="none" xmlns="http://www.w3.org/2000/svg">
<g clip-path="url(#clip0)">
<path d="M-4 60.7803C22.4792 91.9689 96.8531 133.28 161.567 95.3443M161.567 95.3443C192.184 82.1628 275.027 28.7453 256.537 10.1985C238.047 -8.34831 174.174 27.9023 161.567 95.3443ZM161.567 95.3443C161.567 107.99 161.567 119.34 185.1 119.34C207.791 121.026 365.795 55.7222 365.795 19.8632C365.795 -4.13269 312.006 -8.34782 269.144 79.3269C261.27 95.4319 266.286 112.711 278.389 118.106C290.491 123.501 331.337 118.949 398.572 83.542C433.87 67.5245 448.998 59.0943 474.212 55.7222C487.688 53.9198 508.67 52.3501 528 59.0943" stroke="black" stroke-width="9"/>
<path d="M-4 60.7803C22.4792 91.9689 96.8531 133.28 161.567 95.3443M161.567 95.3443C192.184 82.1628 275.027 28.7453 256.537 10.1985C238.047 -8.34831 174.174 27.9023 161.567 95.3443ZM161.567 95.3443C161.567 107.99 161.567 119.34 185.1 119.34C207.791 121.026 365.795 55.7222 365.795 19.8632C365.795 -4.13269 312.006 -8.34782 269.144 79.3269C261.27 95.4319 266.286 112.711 278.389 118.106C290.491 123.501 331.337 118.949 398.572 83.542C433.87 67.5245 448.998 59.0943 474.212 55.7222C487.688 53.9198 508.67 52.3501 528 59.0943" stroke="white" stroke-width="4"/>
</g>
<defs>
<clipPath id="clip0">
<rect width="526" height="125" fill="white"/>
</clipPath>
</defs>
</svg>
